<?xml version="1.0" encoding="UTF-8" standalone="no"?>
<svg width="34px" height="85px" viewBox="0 0 34 85" version="1.1" xmlns="http://www.w3.org/2000/svg" xmlns:xlink="http://www.w3.org/1999/xlink">
    <!-- Generator: Sketch 3.7.2 (28276) - http://www.bohemiancoding.com/sketch -->
    <title>Group 6</title>
    <desc>Created with Sketch.</desc>
    <defs></defs>
    <g id="Page-1" stroke="none" stroke-width="1" fill="none" fill-rule="evenodd">
        <g id="Artboard-11" transform="translate(-3366.000000, -2504.000000)" fill="#6B6B6B">
            <g id="Group-6" transform="translate(3366.000000, 2504.000000)">
                <path d="M10.9717246,63.0045011 L10.9717246,46.0202551 C10.9717246,45.48012 11.4479398,45 12.0025195,45 L22.0010298,45 C22.5536002,45 23.0278061,45.48012 23.0278061,46.0202551 L23.0278061,63.0045011 L33.4382325,63.0045011 C33.9908029,63.0045011 34.1656161,63.3845961 33.8280458,63.8047012 L17.6146255,84.6699175 C17.2770552,85.1100275 16.7224755,85.1100275 16.3849052,84.6699175 L0.171484822,63.8247062 C-0.166085461,63.3845961 0.0107370681,63.0045011 0.561298126,63.0045011 L10.9717246,63.0045011 Z" id="Down-arrow"></path>
                <path d="M10.9717246,18.0045011 L10.9717246,1.02025506 C10.9717246,0.48012003 11.4479398,0 12.0025195,0 L22.0010298,0 C22.5536002,0 23.0278061,0.48012003 23.0278061,1.02025506 L23.0278061,18.0045011 L33.4382325,18.0045011 C33.9908029,18.0045011 34.1656161,18.3845961 33.8280458,18.8047012 L17.6146255,39.6699175 C17.2770552,40.1100275 16.7224755,40.1100275 16.3849052,39.6699175 L0.171484822,18.8247062 C-0.166085461,18.3845961 0.0107370681,18.0045011 0.561298126,18.0045011 L10.9717246,18.0045011 Z" id="Down-arrow-Copy" transform="translate(17.000000, 20.000000) scale(1, -1) translate(-17.000000, -20.000000) "></path>
            </g>
        </g>
    </g>
</svg>