<?xml version="1.0" encoding="UTF-8"?>
<svg width="114px" height="115px" viewBox="0 0 114 115" version="1.1" xmlns="http://www.w3.org/2000/svg" xmlns:xlink="http://www.w3.org/1999/xlink">
    <!-- Generator: Sketch 46.2 (44496) - http://www.bohemiancoding.com/sketch -->
    <title>noun_607131_cc</title>
    <desc>Created with Sketch.</desc>
    <defs></defs>
    <g id="Page-1" stroke="none" stroke-width="1" fill="none" fill-rule="evenodd">
        <g id="noun_607131_cc">
            <g stroke-width="1" fill-rule="evenodd" transform="translate(26.000000, 22.000000)"></g>
            <circle id="Oval" fill="#CCCCCC" fill-rule="evenodd" cx="57" cy="57" r="57"></circle>
            <path d="M23.2300978,102.924093 C32.6818727,109.886035 44.3605024,114 57,114 C69.6394976,114 81.3181273,109.886035 90.7699022,102.924093 C90.9218707,101.964916 91,100.989167 91,100 C91,86.1928813 75.7776815,75 57,75 C38.2223185,75 23,86.1928813 23,100 C23,100.989167 23.0781293,101.964916 23.2300978,102.924093 Z" id="Combined-Shape" stroke="#FFFFFF" stroke-width="1" fill="#F9F9F9" fill-rule="evenodd"></path>
            <path d="M56.9988945,69.2731125 C67.6767777,69.2731125 76.3647872,58.8671787 76.3647872,46.076713 C76.3647872,33.9230068 68.4019761,25.4339846 56.9988945,25.4339846 C45.5958129,25.4339846 37.6330018,33.9230068 37.6330018,46.076713 C37.6330018,58.8671787 46.3210113,69.2731125 56.9988945,69.2731125 Z M56.9988945,30.9614115 C65.2756635,30.9614115 70.8373604,37.0360536 70.8373604,46.076713 C70.8373604,55.8193555 64.63006,63.7456856 56.9988945,63.7456856 C49.367729,63.7456856 43.1604287,55.8193555 43.1604287,46.076713 C43.1604287,37.0360536 48.7221255,30.9614115 56.9988945,30.9614115 Z M59.0374095,72.5895686 L54.9603795,72.5895686 C35.9769847,72.5895686 23.223,83.5261354 23.223,99.8033019 C23.223,101.329977 24.4600381,102.567015 25.9867134,102.567015 C27.5133887,102.567015 28.7504269,101.329977 28.7504269,99.8033019 C28.7504269,83.7969793 42.8685805,78.1169954 54.9603795,78.1169954 L59.0374095,78.1169954 C71.1292085,78.1169954 85.2495731,83.7980848 85.2495731,99.8033019 C85.2495731,101.329977 86.4866113,102.567015 88.0132866,102.567015 C89.5399619,102.567015 90.777,101.329977 90.777,99.8033019 C90.777,83.5250299 78.0219098,72.5895686 59.0374095,72.5895686 Z" id="Shape" fill="#F9F9F9" fill-rule="nonzero"></path>
            <ellipse id="Oval-3" fill="#FFFFFF" fill-rule="evenodd" cx="57" cy="47.5" rx="16" ry="18.5"></ellipse>
        </g>
    </g>
</svg>