<?xml version="1.0" encoding="UTF-8" standalone="no"?>
<svg width="120px" height="120px" viewBox="0 0 120 120" version="1.1" xmlns="http://www.w3.org/2000/svg" xmlns:xlink="http://www.w3.org/1999/xlink" style="background: #CCCCCC;">
    <!-- Generator: Sketch 3.7.2 (28276) - http://www.bohemiancoding.com/sketch -->
    <title>vendor-default</title>
    <desc>Created with Sketch.</desc>
    <defs></defs>
    <g id="Page-1" stroke="none" stroke-width="1" fill="none" fill-rule="evenodd">
        <g id="vendor-default" fill="#FFFFFF">
            <g id="Group" transform="translate(34.000000, 34.000000)">
                <polygon id="Fill-1" points="0.00136452242 19.6914701 0.00136452242 20.869631 0.00136452242 20.8802178 0.00136452242 24.4525106 0.00136452242 24.4555354 0.0134936106 25.9860859 23.625796 38.7825166 23.6076023 6.89806413"></polygon>
                <path d="M40.2161144,7.99561404 C39.7066927,5.92967332 38.7121074,2.98805203 38.3603639,1.96566848 L38.36188,1.96264368 L38.3315573,1.88248639 C38.2709118,1.70553539 38.2314923,1.59513007 38.2314923,1.59513007 C38.2178471,1.55429522 38.1966212,1.51950998 38.1784276,1.48321234 L37.793329,0.478977616 L31.5043968,3.90759226 L32.1442062,5.88732607 L32.1457223,5.88581367 C32.5217241,7.11237145 33.2509855,9.573049 33.6406324,11.4242287 C33.6421486,11.4363279 33.6451809,11.4454023 33.646697,11.4575015 L33.6103097,11.4726255 C34.4290232,15.1931337 34.8383799,18.9136419 34.8383799,22.6326376 C34.8383799,25.465366 34.583669,28.3812765 34.081828,31.3712946 C33.9453758,32.1622807 33.7937622,32.950242 33.6194065,33.7397157 L33.6376002,33.7472777 C33.6345679,33.7608893 33.6330518,33.7729885 33.6300195,33.7881125 C33.2434048,35.627193 32.5232402,38.0606473 32.1442062,39.2962795 L31.5043968,41.2760133 L37.793329,44.7061404 L38.1632662,43.7412281 C38.182976,43.7003932 38.205718,43.6625832 38.2223955,43.6172111 C38.2223955,43.6172111 38.2648473,43.4977314 38.3330734,43.2996068 L38.36188,43.2209619 L38.3603639,43.2194495 C38.7212042,42.1728675 39.7021442,39.2660315 40.2055014,37.2167272 C40.2631146,36.9823049 40.3131471,36.7478826 40.3662118,36.511948 L40.3798571,36.5179976 C41.4396361,31.9838173 41.9702837,27.3392317 41.9702837,22.5827284 C41.9702837,17.5993648 41.3850552,12.7369933 40.2161144,7.99561404" id="Fill-2"></path>
            </g>
        </g>
    </g>
</svg>